# xmcd
#
# Track frame offsets: 
#        150
#        21877
#        44980
#        60982
#        83160
#        98667
#        121037
#        143465
#        156520
#        173417
#
# Disc length: 2665 seconds
#
# Revision: 9
# Processed by: cddbd v1.5.2PL0 Copyright (c) Steve Scherf et al.
# Submitted via: ExactAudioCopy v0.99pb5
#
DISCID=750a670a
DTITLE=QUEEN - A DAY AT THE RACES
DYEAR=1976
DGENRE=Hard Rock
TTITLE0=Tie Your Mother Down
TTITLE1=You Take My Breath Away
TTITLE2=Long Away
TTITLE3=The Millionaire Waltz
TTITLE4=You And I
TTITLE5=Somebody To Love
TTITLE6=White Man
TTITLE7=Good Old Fashioned Lover Boy
TTITLE8=Drowse
TTITLE9=Teo Torriatte (Let Us Cling Together)
EXTD=YEAR: 1976
EXTT0=
EXTT1=
EXTT2=
EXTT3=
EXTT4=
EXTT5=
EXTT6=
EXTT7=
EXTT8=
EXTT9=
PLAYORDER=
